<?xml version="1.0" encoding="utf-8"?>
<!-- Generator: Adobe Illustrator 27.5.0, SVG Export Plug-In . SVG Version: 6.00 Build 0)  -->
<svg version="1.1" id="_x3C_Layer_x3E_" xmlns="http://www.w3.org/2000/svg" xmlns:xlink="http://www.w3.org/1999/xlink" x="0px"
	 y="0px" viewBox="0 0 3116 1640" style="enable-background:new 0 0 3116 1640;" xml:space="preserve">
<rect style="fill:#FFFFFF;" width="3116" height="1640"/>
<g>
	<path style="fill:#EBF3FA;" d="M434.116,1499.969c0,0-301.292-323.49-50.953-673.717
		c222.118-310.744,481.085-289.503,671.084-163.4c80.923,53.708,314.233,6.619,512.812-309.574
		c270.805-431.203,1209.513-169.677,1038.357,493.738c-82.828,321.047,252.076,332.716,81.43,653.633L434.116,1499.969z"/>
	<g>
		<path style="fill:#FFB93E;" d="M1858.162,1154.942l23.111,3.8c1.841,0.303,3.468,1.075,4.752,2.153
			c1.35,1.134,2.316,2.604,2.729,4.208c0.131,0.49,0.205,0.994,0.223,1.502c0.019,0.463-0.007,0.928-0.085,1.398l-53.17,322.251
			c-0.686,4.154-5.013,6.958-9.734,6.398c-0.153-0.021-0.307-0.041-0.459-0.066l-23.111-3.8c-0.152-0.025-0.305-0.055-0.456-0.084
			c-4.652-0.982-7.851-5.023-7.163-9.178l53.17-322.251c0.077-0.47,0.202-0.918,0.369-1.352c0.18-0.475,0.411-0.928,0.693-1.351
			c0.907-1.388,2.294-2.47,3.938-3.112C1854.531,1154.85,1856.32,1154.64,1858.162,1154.942z"/>
		<path style="fill:#FFA412;" d="M1864.07,1318.449l-28.486,172.642c-0.611,3.707-4.877,6.144-9.596,5.563
			c-0.153-0.021-0.307-0.041-0.459-0.066l-23.111-3.8c-0.152-0.025-0.305-0.055-0.456-0.084c-4.656-0.961-7.913-4.635-7.302-8.342
			l24.987-151.441C1832.094,1332.484,1849.686,1329.586,1864.07,1318.449z"/>
		<g>
			
				<rect x="1861.09" y="1177.149" transform="matrix(0.1631 -0.9866 0.9866 0.1631 377.3245 2840.5747)" style="fill:#FFA412;" width="3.713" height="41.473"/>
			
				<rect x="1859.045" y="1189.547" transform="matrix(0.1626 -0.9867 0.9867 0.1626 364.1644 2849.6484)" style="fill:#FFA412;" width="3.712" height="41.473"/>
			
				<rect x="1856.592" y="1204.414" transform="matrix(0.1629 -0.9866 0.9866 0.1629 346.9786 2859.2502)" style="fill:#FFA412;" width="3.712" height="41.473"/>
			
				<rect x="1852.832" y="1227.202" transform="matrix(0.1628 -0.9867 0.9867 0.1628 321.4614 2874.7258)" style="fill:#FFA412;" width="3.712" height="41.473"/>
			
				<rect x="1848.856" y="1251.3" transform="matrix(0.1628 -0.9867 0.9867 0.1628 294.3135 2890.9355)" style="fill:#FFA412;" width="3.712" height="41.473"/>
			
				<rect x="1842.76" y="1288.243" transform="matrix(0.1626 -0.9867 0.9867 0.1626 253.1171 2916.2029)" style="fill:#FFA412;" width="3.712" height="41.473"/>
			
				<rect x="1837.053" y="1322.832" transform="matrix(0.1631 -0.9866 0.9866 0.1631 213.4662 2938.7798)" style="fill:#FFA412;" width="3.712" height="41.474"/>
			
				<rect x="1831.957" y="1353.718" transform="matrix(0.1628 -0.9867 0.9867 0.1628 179.1559 2960.0491)" style="fill:#FFA412;" width="3.712" height="41.474"/>
			
				<rect x="1863.038" y="1165.348" transform="matrix(0.1626 -0.9867 0.9867 0.1626 391.3567 2833.2983)" style="fill:#FFA412;" width="3.712" height="41.473"/>
			
				<rect x="1864.324" y="1157.551" transform="matrix(0.1628 -0.9867 0.9867 0.1628 399.7601 2827.7136)" style="fill:#FFA412;" width="3.712" height="41.474"/>
			
				<rect x="1865.566" y="1150.023" transform="matrix(0.1626 -0.9867 0.9867 0.1626 408.5947 2822.9602)" style="fill:#FFA412;" width="3.711" height="41.473"/>
			<path style="fill:#FFA412;" d="M1847.592,1163.563l40.924,6.729l0.377-2.288c0.078-0.471,0.104-0.936,0.085-1.398l-40.64-6.683
				c-0.167,0.434-0.292,0.882-0.369,1.352L1847.592,1163.563z"/>
			<path style="fill:#FFA412;" d="M1849.031,1158.572l39.724,6.531c-0.413-1.604-1.38-3.074-2.729-4.208l-33.057-5.436
				C1851.325,1156.103,1849.938,1157.185,1849.031,1158.572z"/>
		</g>
	</g>
	<g>
		<path style="fill:#FFB93E;" d="M1900.088,1154.942l23.111,3.8c1.84,0.303,3.468,1.075,4.752,2.153
			c1.35,1.134,2.316,2.604,2.729,4.208c0.131,0.49,0.204,0.994,0.222,1.502c0.02,0.463-0.007,0.928-0.084,1.398l-53.17,322.251
			c-0.686,4.154-5.013,6.958-9.734,6.398c-0.153-0.021-0.307-0.041-0.459-0.066l-23.111-3.8c-0.152-0.025-0.305-0.055-0.456-0.084
			c-4.652-0.982-7.849-5.023-7.164-9.178l53.171-322.251c0.077-0.47,0.202-0.918,0.369-1.352c0.18-0.475,0.411-0.928,0.693-1.351
			c0.907-1.388,2.294-2.47,3.938-3.112C1896.457,1154.85,1898.246,1154.64,1900.088,1154.942z"/>
		<path style="fill:#FFA412;" d="M1905.996,1318.449l-28.486,172.642c-0.611,3.707-4.877,6.144-9.596,5.563
			c-0.153-0.021-0.307-0.041-0.459-0.066l-23.111-3.8c-0.152-0.025-0.305-0.055-0.456-0.084c-4.656-0.961-7.913-4.635-7.302-8.342
			l24.987-151.441C1874.021,1332.484,1891.611,1329.586,1905.996,1318.449z"/>
		<g>
			
				<rect x="1903.016" y="1177.149" transform="matrix(0.1631 -0.9866 0.9866 0.1631 412.4137 2881.9392)" style="fill:#FFA412;" width="3.713" height="41.473"/>
			
				<rect x="1900.97" y="1189.547" transform="matrix(0.1626 -0.9867 0.9867 0.1626 399.3183 2891.0564)" style="fill:#FFA412;" width="3.712" height="41.473"/>
			
				<rect x="1898.517" y="1204.414" transform="matrix(0.1629 -0.9866 0.9866 0.1629 382.0759 2900.616)" style="fill:#FFA412;" width="3.712" height="41.474"/>
			
				<rect x="1894.758" y="1227.202" transform="matrix(0.1628 -0.9867 0.9867 0.1628 356.5175 2916.0513)" style="fill:#FFA412;" width="3.712" height="41.473"/>
			
				<rect x="1890.781" y="1251.3" transform="matrix(0.1628 -0.9867 0.9867 0.1628 329.4128 2932.302)" style="fill:#FFA412;" width="3.712" height="41.473"/>
			
				<rect x="1884.686" y="1288.243" transform="matrix(0.1629 -0.9866 0.9866 0.1629 287.787 2957.1453)" style="fill:#FFA412;" width="3.712" height="41.473"/>
			
				<rect x="1878.978" y="1322.832" transform="matrix(0.1628 -0.9867 0.9867 0.1628 248.9466 2980.5342)" style="fill:#FFA412;" width="3.712" height="41.474"/>
			
				<rect x="1873.883" y="1353.719" transform="matrix(0.1628 -0.9867 0.9867 0.1628 214.2134 3001.3716)" style="fill:#FFA412;" width="3.712" height="41.473"/>
			
				<rect x="1904.963" y="1165.348" transform="matrix(0.1629 -0.9866 0.9866 0.1629 426.0162 2874.2725)" style="fill:#FFA412;" width="3.712" height="41.473"/>
			
				<rect x="1906.25" y="1157.552" transform="matrix(0.1626 -0.9867 0.9867 0.1626 435.3087 2869.4712)" style="fill:#FFA412;" width="3.712" height="41.473"/>
			
				<rect x="1907.492" y="1150.023" transform="matrix(0.1626 -0.9867 0.9867 0.1626 443.703 2864.3279)" style="fill:#FFA412;" width="3.712" height="41.474"/>
			<path style="fill:#FFA412;" d="M1889.518,1163.563l40.924,6.729l0.377-2.288c0.077-0.471,0.104-0.936,0.084-1.398l-40.639-6.683
				c-0.167,0.434-0.292,0.882-0.369,1.352L1889.518,1163.563z"/>
			<path style="fill:#FFA412;" d="M1890.957,1158.572l39.724,6.531c-0.413-1.604-1.38-3.074-2.729-4.208l-33.057-5.436
				C1893.251,1156.103,1891.864,1157.185,1890.957,1158.572z"/>
		</g>
	</g>
	<g>
		<g>
			<path style="fill:#FFB93E;" d="M1746.763,1464.311l-0.042,23.421c-0.005,1.866-0.505,3.597-1.364,5.037
				c-0.902,1.514-2.198,2.703-3.715,3.368c-0.464,0.209-0.948,0.362-1.447,0.461c-0.454,0.094-0.917,0.143-1.394,0.142
				l-326.607-0.775c-4.211-0.01-7.673-3.831-7.878-8.581c-0.004-0.155-0.008-0.31-0.008-0.464l0.043-23.422
				c0-0.154,0.005-0.309,0.01-0.464c0.223-4.749,3.698-8.554,7.909-8.543l326.607,0.775c0.475,0.001,0.939,0.052,1.393,0.147
				c0.498,0.102,0.982,0.258,1.445,0.468c1.515,0.672,2.806,1.867,3.702,3.387
				C1746.271,1460.711,1746.766,1462.444,1746.763,1464.311z"/>
			<path style="fill:#FFA412;" d="M1586.322,1496.377l-174.976-0.415c-3.758-0.009-6.847-3.829-7.031-8.579
				c-0.004-0.155-0.008-0.31-0.008-0.464l0.043-23.422c0-0.154,0.005-0.309,0.01-0.464c0.2-4.749,3.304-8.555,7.062-8.545
				l153.488,0.364C1567.338,1467.068,1573.021,1483.966,1586.322,1496.377z"/>
			<g>
				
					<rect x="1684.406" y="1474.067" transform="matrix(0.0024 -1 1 0.0024 225.1811 3177.5623)" style="fill:#FFA412;" width="41.473" height="3.712"/>
				
					<rect x="1671.84" y="1474.038" transform="matrix(0.0024 -1 1 0.0024 212.6751 3164.967)" style="fill:#FFA412;" width="41.474" height="3.712"/>
				
					<rect x="1656.772" y="1474.002" transform="matrix(0.0026 -1 1 0.0026 197.2274 3149.4646)" style="fill:#FFA412;" width="41.474" height="3.712"/>
				
					<rect x="1633.676" y="1473.947" transform="matrix(0.0023 -1 1 0.0023 174.7365 3126.7524)" style="fill:#FFA412;" width="41.473" height="3.712"/>
				
					<rect x="1609.253" y="1473.889" transform="matrix(0.0024 -1 1 0.0024 150.3843 3102.2314)" style="fill:#FFA412;" width="41.474" height="3.711"/>
				
					<rect x="1571.81" y="1473.8" transform="matrix(0.0024 -1 1 0.0024 113.1195 3064.7004)" style="fill:#FFA412;" width="41.474" height="3.712"/>
				
					<rect x="1536.753" y="1473.717" transform="matrix(0.0024 -1 1 0.0024 78.2295 3029.5615)" style="fill:#FFA412;" width="41.474" height="3.712"/>
				
					<rect x="1505.449" y="1473.643" transform="matrix(0.0026 -1 1 0.0026 46.7041 2997.8237)" style="fill:#FFA412;" width="41.473" height="3.712"/>
				
					<rect x="1696.366" y="1474.096" transform="matrix(0.0024 -1 1 0.0024 237.0856 3189.5525)" style="fill:#FFA412;" width="41.474" height="3.712"/>
				
					<rect x="1704.269" y="1474.115" transform="matrix(0.0021 -1 1 0.0021 245.4126 3197.8701)" style="fill:#FFA412;" width="41.473" height="3.712"/>
				
					<rect x="1711.899" y="1474.133" transform="matrix(0.0024 -1 1 0.0024 252.5428 3205.1196)" style="fill:#FFA412;" width="41.473" height="3.712"/>
				<path style="fill:#FFA412;" d="M1736.557,1455.26l-0.075,41.474l2.319,0.006c0.477,0.001,0.939-0.048,1.394-0.142l0.075-41.185
					c-0.453-0.096-0.918-0.146-1.393-0.147L1736.557,1455.26z"/>
				<path style="fill:#FFA412;" d="M1741.715,1455.881l-0.073,40.256c1.517-0.665,2.813-1.854,3.715-3.369l0.061-33.5
					C1744.521,1457.748,1743.229,1456.553,1741.715,1455.881z"/>
			</g>
		</g>
		<g>
			<path style="fill:#FFB93E;" d="M1711.918,1422.754l-0.043,23.421c-0.004,1.866-0.505,3.597-1.363,5.037
				c-0.903,1.515-2.197,2.703-3.715,3.369c-0.463,0.208-0.948,0.361-1.447,0.46c-0.454,0.094-0.917,0.143-1.393,0.142
				l-326.608-0.775c-4.211-0.01-7.672-3.83-7.877-8.581c-0.005-0.155-0.009-0.31-0.009-0.464l0.043-23.422
				c0-0.154,0.005-0.309,0.01-0.463c0.223-4.75,3.697-8.554,7.909-8.544l326.607,0.775c0.21,0.001,0.419,0.011,0.624,0.032
				c0.088,0.005,0.179,0.015,0.267,0.03c0.096,0.01,0.196,0.025,0.293,0.045c0.069,0.01,0.14,0.025,0.21,0.041
				c0.497,0.101,0.981,0.257,1.444,0.467c0.069,0.03,0.136,0.061,0.205,0.096c0.065,0.03,0.136,0.064,0.2,0.1
				c0.132,0.071,0.267,0.146,0.398,0.221c0.074,0.046,0.152,0.096,0.227,0.146c0.07,0.045,0.135,0.085,0.2,0.136
				c0.127,0.085,0.249,0.175,0.371,0.27c0.14,0.11,0.274,0.226,0.405,0.346c0.104,0.09,0.205,0.186,0.306,0.285
				c0.004,0.005,0.013,0.01,0.018,0.02c0.065,0.065,0.135,0.136,0.2,0.205c0.2,0.211,0.393,0.44,0.571,0.675
				c0.057,0.07,0.108,0.141,0.157,0.211c0.052,0.069,0.1,0.144,0.151,0.22c0.101,0.149,0.201,0.305,0.292,0.459
				C1711.427,1419.156,1711.922,1420.888,1711.918,1422.754z"/>
			<path style="fill:#FFA412;" d="M1551.477,1454.821l-174.976-0.416c-3.76-0.009-6.847-3.828-7.029-8.579
				c-0.005-0.155-0.009-0.31-0.009-0.464l0.043-23.422c0-0.154,0.005-0.309,0.01-0.463c0.201-4.75,3.301-8.555,7.061-8.546
				l153.484,0.365c0.069,0.338,0.139,0.678,0.213,1.022C1532.815,1426.44,1538.539,1442.755,1551.477,1454.821z"/>
			<g>
				
					<rect x="1649.561" y="1432.509" transform="matrix(0.0023 -1 1 0.0023 232.0218 3101.2976)" style="fill:#FFA412;" width="41.473" height="3.713"/>
				
					<rect x="1636.995" y="1432.48" transform="matrix(0.0023 -1 1 0.0023 219.5148 3088.7017)" style="fill:#FFA412;" width="41.474" height="3.711"/>
				
					<rect x="1621.927" y="1432.444" transform="matrix(0.0024 -1 1 0.0024 204.4737 3073.5591)" style="fill:#FFA412;" width="41.473" height="3.712"/>
				
					<rect x="1598.831" y="1432.39" transform="matrix(0.0024 -1 1 0.0024 181.4865 3050.4084)" style="fill:#FFA412;" width="41.473" height="3.711"/>
				
					<rect x="1574.408" y="1432.332" transform="matrix(0.0021 -1 1 0.0021 157.6087 3026.3157)" style="fill:#FFA412;" width="41.472" height="3.712"/>
				
					<rect x="1536.966" y="1432.243" transform="matrix(0.0026 -1 1 0.0026 119.537 2988.0466)" style="fill:#FFA412;" width="41.473" height="3.711"/>
				
					<rect x="1501.909" y="1432.159" transform="matrix(0.0024 -1 1 0.0024 85.0241 2953.2561)" style="fill:#FFA412;" width="41.473" height="3.712"/>
				
					<rect x="1470.604" y="1432.085" transform="matrix(0.0021 -1 1 0.0021 54.2696 2922.2661)" style="fill:#FFA412;" width="41.473" height="3.712"/>
				
					<rect x="1661.521" y="1432.539" transform="matrix(0.0023 -1 1 0.0023 243.9248 3113.2864)" style="fill:#FFA412;" width="41.474" height="3.712"/>
				
					<rect x="1669.423" y="1432.557" transform="matrix(0.0024 -1 1 0.0024 251.7428 3121.1667)" style="fill:#FFA412;" width="41.474" height="3.711"/>
				
					<rect x="1677.053" y="1432.576" transform="matrix(0.0024 -1 1 0.0024 259.3374 3128.8162)" style="fill:#FFA412;" width="41.474" height="3.712"/>
				<path style="fill:#FFA412;" d="M1701.711,1413.702l-0.075,41.475l2.32,0.005c0.476,0.001,0.939-0.048,1.394-0.142l0.075-41.184
					c-0.454-0.097-0.917-0.147-1.394-0.148L1701.711,1413.702z"/>
				<path style="fill:#FFA412;" d="M1706.87,1414.324l-0.073,40.255c1.516-0.665,2.812-1.854,3.715-3.369l0.061-33.5
					C1709.676,1416.191,1708.385,1414.996,1706.87,1414.324z"/>
			</g>
		</g>
		<path style="fill:#FFB93E;" d="M1728.865,1382.344l-0.042,23.421c-0.003,1.866-0.505,3.596-1.363,5.036
			c-0.903,1.515-2.198,2.705-3.714,3.369c-0.464,0.208-0.949,0.362-1.447,0.461c-0.455,0.094-0.918,0.143-1.395,0.142
			l-326.607-0.776c-1.31-0.002-2.551-0.375-3.641-1.031c-2.309-1.388-3.955-4.046-4.211-7.146c-0.014-0.135-0.022-0.269-0.025-0.403
			c-0.005-0.154-0.009-0.31-0.008-0.465l0.042-23.421c0-0.154,0.005-0.31,0.01-0.464c0.223-4.749,3.698-8.553,7.909-8.543
			l326.606,0.774c0.477,0.002,0.939,0.054,1.394,0.148c0.498,0.101,0.982,0.257,1.445,0.468c1.515,0.672,2.805,1.868,3.702,3.387
			C1728.374,1378.745,1728.869,1380.478,1728.865,1382.344z"/>
		<path style="fill:#FFA412;" d="M1568.426,1414.41l-174.976-0.415c-1.171-0.004-2.275-0.375-3.248-1.031
			c-2.063-1.387-3.531-4.045-3.757-7.145c-0.014-0.135-0.022-0.269-0.025-0.403c-0.005-0.154-0.009-0.31-0.008-0.465l0.042-23.421
			c0-0.154,0.005-0.31,0.01-0.464c0.201-4.749,3.305-8.555,7.062-8.545l153.488,0.364c2.363,11.881,7.803,28.194,20.34,40.499
			C1567.706,1413.729,1568.063,1414.07,1568.426,1414.41z"/>
		<path style="fill:#FFB93E;" d="M1736.765,1340.889l-0.042,23.421c-0.004,1.866-0.505,3.597-1.364,5.036
			c-0.902,1.515-2.197,2.705-3.715,3.369c-0.463,0.209-0.948,0.362-1.446,0.461c-0.455,0.094-0.918,0.143-1.394,0.142
			l-326.606-0.776c-4.212-0.009-7.674-3.83-7.879-8.58c-0.005-0.155-0.008-0.31-0.008-0.465l0.043-23.421
			c0-0.154,0.004-0.309,0.01-0.464c0.203-4.396,3.193-7.976,6.974-8.48c0.306-0.044,0.616-0.063,0.936-0.063l326.606,0.775
			c0.477,0.001,0.939,0.052,1.393,0.147c0.498,0.102,0.983,0.257,1.445,0.468c1.515,0.672,2.807,1.867,3.703,3.387
			C1736.273,1337.29,1736.769,1339.022,1736.765,1340.889z"/>
		<path style="fill:#FFA412;" d="M1576.325,1372.955l-174.977-0.415c-3.757-0.009-6.847-3.829-7.03-8.579
			c-0.005-0.155-0.008-0.31-0.008-0.465l0.043-23.421c0-0.154,0.004-0.309,0.01-0.464c0.182-4.391,2.854-7.977,6.228-8.482
			c0.271-0.044,0.55-0.063,0.834-0.063l153.487,0.364c0.005,0.021,0.009,0.046,0.013,0.066
			C1557.362,1343.7,1563.046,1360.564,1576.325,1372.955z"/>
		<path style="fill:#FFB93E;" d="M1712.828,1299.423l-0.043,23.421c-0.004,1.866-0.504,3.597-1.363,5.036
			c-0.902,1.515-2.197,2.704-3.715,3.369c-0.463,0.209-0.948,0.362-1.446,0.462c-0.153,0.028-0.306,0.058-0.459,0.078
			c-0.083,0.01-0.171,0.02-0.258,0.028c-0.083,0.011-0.171,0.016-0.258,0.021c-0.14,0.01-0.279,0.014-0.42,0.014l-326.606-0.775
			c-4.212-0.011-7.673-3.831-7.878-8.581c-0.005-0.154-0.009-0.31-0.008-0.464l0.042-23.421c0-0.155,0.005-0.311,0.01-0.465
			c0.004-0.13,0.014-0.254,0.022-0.379c0.321-3.821,2.756-6.969,5.938-7.889c0.079-0.025,0.162-0.045,0.24-0.065
			c0.551-0.139,1.123-0.211,1.709-0.21l326.606,0.775c0.24,0.001,0.477,0.017,0.708,0.036c0.105,0.016,0.21,0.025,0.315,0.041h0.004
			c0.122,0.02,0.244,0.046,0.366,0.071c0.498,0.101,0.982,0.256,1.445,0.467c1.515,0.673,2.806,1.868,3.702,3.388
			C1712.336,1295.824,1712.831,1297.557,1712.828,1299.423z"/>
		<path style="fill:#FFA412;" d="M1552.388,1331.489l-174.976-0.415c-3.757-0.01-6.847-3.829-7.03-8.579
			c-0.005-0.154-0.009-0.31-0.008-0.464l0.042-23.421c0-0.155,0.005-0.311,0.01-0.465c0.004-0.13,0.014-0.254,0.022-0.379
			c0.291-3.906,2.556-7.104,5.487-7.945c0.102-0.035,0.201-0.059,0.303-0.079c0.405-0.094,0.821-0.143,1.249-0.142l153.488,0.364
			c0.018,0.1,0.039,0.194,0.061,0.295c2.455,12.17,8.138,28.859,21.281,41.165C1552.34,1331.444,1552.365,1331.47,1552.388,1331.489
			z"/>
		<path style="fill:#FFB93E;" d="M1712.217,1258.242l-0.043,23.421c-0.003,1.866-0.504,3.597-1.362,5.036
			c-0.903,1.516-2.198,2.704-3.716,3.37c-0.361,0.163-0.743,0.292-1.127,0.386h-0.009c-0.105,0.029-0.205,0.055-0.311,0.074
			c-0.454,0.094-0.917,0.143-1.394,0.141l-326.607-0.774c-0.345-0.001-0.69-0.026-1.022-0.083c-0.131-0.015-0.262-0.04-0.388-0.07
			c-3.551-0.742-6.287-4.221-6.468-8.428c-0.004-0.155-0.009-0.31-0.008-0.464l0.042-23.421c0-0.155,0.005-0.31,0.01-0.464
			c0.223-4.751,3.698-8.555,7.91-8.544l326.607,0.775c0.209,0.001,0.419,0.011,0.624,0.031c0.087,0.01,0.179,0.021,0.266,0.03
			c0.097,0.011,0.197,0.025,0.294,0.046c0.069,0.01,0.139,0.025,0.209,0.041c0.498,0.101,0.982,0.256,1.445,0.467
			c0.069,0.03,0.135,0.061,0.205,0.096c0.065,0.029,0.135,0.064,0.201,0.1c0.135,0.071,0.266,0.146,0.396,0.221
			c0.145,0.091,0.288,0.18,0.428,0.28c0.127,0.086,0.248,0.176,0.371,0.271c0.139,0.109,0.274,0.226,0.404,0.346
			c0.105,0.089,0.205,0.185,0.307,0.285c0.004,0.004,0.013,0.01,0.017,0.02c0.065,0.064,0.136,0.136,0.201,0.205
			c0.2,0.211,0.392,0.44,0.571,0.675c0.057,0.069,0.108,0.141,0.156,0.21c0.053,0.075,0.1,0.145,0.152,0.221
			c0.1,0.149,0.2,0.305,0.292,0.459C1711.727,1254.644,1712.221,1256.376,1712.217,1258.242z"/>
		<path style="fill:#FFA412;" d="M1551.776,1290.309l-174.976-0.415c-0.14-0.001-0.279-0.007-0.415-0.016
			c-0.152-0.011-0.301-0.031-0.45-0.057c-3.362-0.537-5.998-4.125-6.165-8.507c-0.004-0.155-0.009-0.31-0.008-0.464l0.042-23.421
			c0-0.155,0.005-0.31,0.01-0.464c0.201-4.751,3.301-8.555,7.062-8.546l153.484,0.364c0.068,0.339,0.139,0.679,0.212,1.023
			c2.521,12.021,8.175,28.165,20.891,40.206C1551.567,1290.114,1551.672,1290.208,1551.776,1290.309z"/>
		<path style="fill:#FFB93E;" d="M1729.166,1217.831l-0.043,23.422c-0.004,1.865-0.505,3.596-1.363,5.036
			c-0.903,1.515-2.197,2.704-3.715,3.369c-0.465,0.208-0.949,0.362-1.447,0.461c-0.454,0.094-0.917,0.143-1.394,0.141
			l-326.607-0.775c-1.312-0.003-2.551-0.375-3.642-1.031c-2.308-1.388-3.954-4.046-4.211-7.146
			c-0.013-0.134-0.021-0.269-0.025-0.404c-0.004-0.154-0.008-0.309-0.008-0.464l0.042-23.421c0.001-0.154,0.006-0.31,0.01-0.464
			c0.224-4.75,3.698-8.554,7.91-8.543l326.606,0.774c0.477,0.001,0.939,0.053,1.394,0.148c0.498,0.101,0.982,0.257,1.445,0.468
			c1.515,0.672,2.806,1.867,3.702,3.387C1728.674,1214.232,1729.168,1215.966,1729.166,1217.831z"/>
		<path style="fill:#FFA412;" d="M1568.725,1249.897l-174.976-0.414c-1.171-0.004-2.274-0.375-3.248-1.032
			c-2.063-1.387-3.53-4.044-3.757-7.144c-0.013-0.134-0.021-0.269-0.025-0.404c-0.004-0.154-0.008-0.309-0.008-0.464l0.042-23.421
			c0.001-0.154,0.006-0.31,0.01-0.464c0.202-4.75,3.306-8.555,7.062-8.546l153.488,0.364c2.364,11.882,7.803,28.195,20.34,40.5
			C1568.006,1249.218,1568.363,1249.559,1568.725,1249.897z"/>
		<path style="fill:#FFB93E;" d="M1755.931,1176.421l-0.042,23.422c-0.004,1.865-0.505,3.596-1.363,5.036
			c-0.902,1.515-2.198,2.704-3.715,3.369c-0.464,0.209-0.949,0.361-1.447,0.461c-0.454,0.094-0.918,0.143-1.395,0.141
			l-326.606-0.775c-4.211-0.01-7.673-3.83-7.878-8.581c-0.004-0.154-0.008-0.309-0.008-0.464l0.043-23.421
			c0-0.154,0.004-0.31,0.009-0.464c0.204-4.391,3.194-7.977,6.975-8.48c0.306-0.044,0.62-0.063,0.935-0.063l326.607,0.776
			c0.477,0,0.939,0.052,1.394,0.147c0.497,0.101,0.981,0.257,1.444,0.467c1.515,0.673,2.807,1.868,3.703,3.388
			C1755.439,1172.822,1755.934,1174.556,1755.931,1176.421z"/>
		<path style="fill:#FFA412;" d="M1595.491,1208.488l-174.977-0.416c-3.757-0.009-6.847-3.828-7.03-8.579
			c-0.004-0.154-0.008-0.309-0.008-0.464l0.043-23.421c0-0.154,0.004-0.31,0.009-0.464c0.183-4.391,2.854-7.977,6.228-8.483
			c0.271-0.044,0.551-0.063,0.835-0.063l153.488,0.364c0.004,0.021,0.008,0.045,0.013,0.065
			C1576.528,1179.238,1582.212,1196.098,1595.491,1208.488z"/>
		<path style="fill:#FFB93E;" d="M1713.127,1134.911l-0.042,23.421c-0.004,1.866-0.505,3.597-1.364,5.036
			c-0.902,1.515-2.197,2.704-3.715,3.369c-0.463,0.208-0.947,0.362-1.446,0.461c-0.152,0.029-0.306,0.059-0.458,0.078
			c-0.123,0.021-0.245,0.029-0.368,0.039c-0.061,0.005-0.122,0.01-0.183,0.016c-0.127,0.004-0.254,0.009-0.385,0.009l-326.607-0.776
			c-4.211-0.01-7.672-3.83-7.877-8.58c-0.005-0.154-0.009-0.31-0.009-0.465l0.042-23.421c0.001-0.154,0.006-0.309,0.01-0.464
			c0.224-4.749,3.699-8.553,7.91-8.543l326.606,0.775c0.14,0,0.28,0.005,0.42,0.016c0.332,0.021,0.655,0.066,0.974,0.132
			c0.498,0.101,0.982,0.257,1.445,0.468c0.235,0.105,0.467,0.221,0.685,0.351c0.14,0.08,0.275,0.16,0.406,0.251
			c0.014,0.005,0.03,0.015,0.044,0.029c0.135,0.091,0.266,0.186,0.396,0.286c0.026,0.015,0.048,0.034,0.065,0.05
			c0.122,0.09,0.24,0.19,0.353,0.295c0.28,0.24,0.542,0.501,0.785,0.786c0.078,0.085,0.153,0.174,0.223,0.265
			c0.013,0.015,0.026,0.03,0.039,0.05c0.049,0.055,0.092,0.109,0.136,0.17c0.009,0.01,0.018,0.024,0.025,0.035
			c0.079,0.104,0.157,0.215,0.231,0.33c0.109,0.16,0.213,0.319,0.313,0.489C1712.636,1131.313,1713.131,1133.045,1713.127,1134.911z
			"/>
		<path style="fill:#FFA412;" d="M1552.687,1166.978l-174.976-0.415c-3.756-0.009-6.848-3.829-7.029-8.579
			c-0.005-0.154-0.009-0.31-0.009-0.465l0.042-23.421c0.001-0.154,0.006-0.309,0.01-0.464c0.201-4.749,3.306-8.554,7.063-8.546
			l153.487,0.365c0.062,0.314,0.126,0.634,0.2,0.958c2.524,12.106,8.234,28.415,21.143,40.501
			C1552.639,1166.932,1552.665,1166.958,1552.687,1166.978z"/>
		<path style="fill:#FFB93E;" d="M1737.213,1094.452l-0.042,23.422c-0.003,1.865-0.505,3.596-1.364,5.036
			c-0.901,1.514-2.197,2.704-3.714,3.369c-0.464,0.209-0.948,0.361-1.446,0.46c-0.455,0.095-0.918,0.143-1.395,0.142l-326.606-0.775
			c-1.267-0.003-2.468-0.351-3.528-0.966c-2.379-1.368-4.077-4.082-4.329-7.246c-0.008-0.12-0.017-0.244-0.021-0.369
			c-0.005-0.154-0.009-0.309-0.009-0.464l0.043-23.421c0.001-0.155,0.005-0.31,0.01-0.464c0.204-4.396,3.194-7.977,6.974-8.48
			c0.306-0.045,0.616-0.064,0.936-0.063l326.607,0.776c0.476,0,0.939,0.052,1.393,0.146c0.498,0.102,0.982,0.258,1.445,0.468
			c1.514,0.673,2.805,1.868,3.703,3.388C1736.722,1090.854,1737.217,1092.586,1737.213,1094.452z"/>
		<path style="fill:#FFA412;" d="M1576.773,1126.52l-174.977-0.416c-1.131-0.002-2.201-0.35-3.147-0.966
			c-2.124-1.367-3.636-4.08-3.861-7.244c-0.008-0.12-0.017-0.244-0.021-0.369c-0.005-0.154-0.009-0.309-0.009-0.464l0.043-23.421
			c0.001-0.155,0.005-0.31,0.01-0.464c0.183-4.391,2.854-7.977,6.228-8.483c0.271-0.044,0.55-0.063,0.834-0.063l153.487,0.364
			c0.005,0.021,0.009,0.045,0.014,0.065c2.372,11.896,7.833,28.21,20.396,40.499
			C1576.097,1125.884,1576.434,1126.203,1576.773,1126.52z"/>
		<path style="fill:#FFB93E;" d="M1713.276,1052.986l-0.042,23.422c-0.004,1.866-0.505,3.596-1.364,5.035
			c-0.902,1.516-2.197,2.705-3.715,3.37c-0.463,0.208-0.948,0.362-1.446,0.461c-0.152,0.029-0.306,0.059-0.459,0.078
			c-0.083,0.01-0.17,0.02-0.258,0.029c-0.083,0.01-0.17,0.015-0.258,0.02c-0.14,0.01-0.279,0.015-0.42,0.015l-326.607-0.776
			c-4.211-0.01-7.672-3.83-7.877-8.58c-0.005-0.155-0.009-0.31-0.008-0.465l0.042-23.421c0-0.154,0.005-0.31,0.01-0.465
			c0.223-4.749,3.698-8.553,7.909-8.543l326.607,0.775c0.477,0.002,0.939,0.053,1.393,0.148c0.498,0.101,0.982,0.257,1.445,0.468
			c1.515,0.672,2.806,1.867,3.702,3.387C1712.785,1049.388,1713.279,1051.121,1713.276,1052.986z"/>
		<path style="fill:#FFA412;" d="M1552.837,1085.053l-174.977-0.414c-3.757-0.01-6.847-3.829-7.03-8.579
			c-0.005-0.155-0.009-0.31-0.008-0.465l0.042-23.421c0-0.154,0.005-0.31,0.01-0.465c0.201-4.749,3.305-8.554,7.062-8.545
			l153.488,0.364c2.425,12.196,8.09,29.054,21.342,41.46C1552.788,1085.008,1552.814,1085.033,1552.837,1085.053z"/>
		<g>
			
				<rect x="1666.51" y="1392.1" transform="matrix(0.0024 -1 1 0.0024 289.2937 3077.8926)" style="fill:#FFA412;" width="41.474" height="3.711"/>
			
				<rect x="1653.945" y="1392.07" transform="matrix(0.0021 -1 1 0.0021 277.2401 3065.6743)" style="fill:#FFA412;" width="41.473" height="3.712"/>
			
				<rect x="1638.877" y="1392.034" transform="matrix(0.0021 -1 1 0.0021 262.1942 3050.5334)" style="fill:#FFA412;" width="41.473" height="3.712"/>
			
				<rect x="1615.78" y="1391.979" transform="matrix(0.0024 -1 1 0.0024 238.8061 3027.043)" style="fill:#FFA412;" width="41.474" height="3.712"/>
			
				<rect x="1591.357" y="1391.921" transform="matrix(0.0024 -1 1 0.0024 214.4992 3002.563)" style="fill:#FFA412;" width="41.474" height="3.712"/>
			
				<rect x="1553.914" y="1391.833" transform="matrix(0.0024 -1 1 0.0024 177.2325 2965.0303)" style="fill:#FFA412;" width="41.474" height="3.711"/>
			
				<rect x="1518.857" y="1391.749" transform="matrix(0.0021 -1 1 0.0021 142.7566 2930.2673)" style="fill:#FFA412;" width="41.473" height="3.712"/>
			
				<rect x="1487.554" y="1391.675" transform="matrix(0.0024 -1 1 0.0024 111.1877 2898.5132)" style="fill:#FFA412;" width="41.473" height="3.711"/>
			
				<rect x="1678.471" y="1392.128" transform="matrix(0.0024 -1 1 0.0024 301.1989 3089.8816)" style="fill:#FFA412;" width="41.473" height="3.712"/>
			
				<rect x="1686.373" y="1392.147" transform="matrix(0.0021 -1 1 0.0021 309.522 3098.179)" style="fill:#FFA412;" width="41.473" height="3.711"/>
			
				<rect x="1694.003" y="1392.165" transform="matrix(0.0024 -1 1 0.0024 316.6572 3105.4502)" style="fill:#FFA412;" width="41.473" height="3.712"/>
			<path style="fill:#FFA412;" d="M1718.66,1373.292l-0.074,41.474l2.319,0.006c0.476,0.001,0.939-0.048,1.394-0.142l0.075-41.185
				c-0.454-0.096-0.917-0.146-1.394-0.148L1718.66,1373.292z"/>
			<path style="fill:#FFA412;" d="M1723.818,1373.913l-0.072,40.256c1.516-0.665,2.813-1.854,3.715-3.368l0.061-33.501
				C1726.623,1375.78,1725.334,1374.585,1723.818,1373.913z"/>
			
				<rect x="1561.813" y="1350.376" transform="matrix(0.0024 -1 1 0.0024 226.5699 2931.5715)" style="fill:#FFA412;" width="41.473" height="3.712"/>
			
				<rect x="1526.756" y="1350.292" transform="matrix(0.0023 -1 1 0.0023 191.7209 2896.4683)" style="fill:#FFA412;" width="41.473" height="3.712"/>
			
				<rect x="1495.452" y="1350.219" transform="matrix(0.0024 -1 1 0.0024 160.524 2865.0554)" style="fill:#FFA412;" width="41.474" height="3.713"/>
			<path style="fill:#FFA412;" d="M1708.924,1373.27l0.076-41.474l-3.256-0.008c0.173-0.022,0.346-0.045,0.517-0.08l0.075-41.184
				c-0.227-0.048-0.456-0.085-0.688-0.109l0.074-40.189l1.446,0.003l-0.073,39.841c1.517-0.665,2.813-1.854,3.715-3.369
				l0.061-33.501c-0.74-1.254-1.76-2.269-2.941-2.969l1.297,0.003l0.075-41.474l-3.712-0.009l-0.073,40.562
				c-0.389-0.069-0.781-0.113-1.186-0.114l-2.32-0.007l-0.075,41.475l0.688,0.001l-0.076,41.177l2.319,0.006
				c0.143,0,0.282-0.013,0.422-0.021l-0.075,41.432L1708.924,1373.27z"/>
			
				<rect x="1694.271" y="1350.691" transform="matrix(0.0024 -1 1 0.0024 358.3997 3064.344)" style="fill:#FFA412;" width="41.474" height="3.712"/>
			
				<rect x="1701.901" y="1350.709" transform="matrix(0.0026 -1 1 0.0026 365.5757 3071.6626)" style="fill:#FFA412;" width="41.473" height="3.712"/>
			<path style="fill:#FFA412;" d="M1726.56,1331.836l-0.075,41.474l2.319,0.006c0.476,0,0.938-0.048,1.394-0.143l0.074-41.183
				c-0.453-0.097-0.916-0.147-1.393-0.148L1726.56,1331.836z"/>
			<path style="fill:#FFA412;" d="M1731.717,1332.457l-0.073,40.256c1.518-0.665,2.813-1.854,3.715-3.369l0.062-33.5
				C1734.523,1334.325,1733.231,1333.129,1731.717,1332.457z"/>
			<polygon style="fill:#FFA412;" points="1673.026,1331.775 1673.102,1290.302 1672.416,1290.301 1672.491,1249.123 
				1668.778,1249.114 1668.703,1290.588 1669.39,1290.59 1669.314,1331.701 1665.693,1331.692 1665.618,1373.166 1669.33,1373.175 
				1669.405,1331.767 			"/>
			<polygon style="fill:#FFA412;" points="1645.47,1290.236 1644.782,1290.234 1644.857,1249.058 1641.146,1249.049 
				1641.07,1290.522 1641.757,1290.523 1641.682,1331.701 1642.598,1331.703 1642.522,1373.111 1646.234,1373.12 1646.31,1331.647 
				1645.395,1331.645 			"/>
			<path style="fill:#FFA412;" d="M1707.78,1290.991l-0.073,40.257c1.518-0.665,2.813-1.855,3.715-3.369l0.062-33.5
				C1710.586,1292.859,1709.295,1291.664,1707.78,1290.991z"/>
			<polygon style="fill:#FFA412;" points="1621.761,1249.003 1618.049,1248.994 1617.974,1290.467 1618.66,1290.469 
				1618.586,1331.582 1618.174,1331.58 1618.099,1373.053 1621.811,1373.063 1621.887,1331.653 1622.297,1331.655 
				1622.372,1290.182 1621.687,1290.181 			"/>
			<polygon style="fill:#FFA412;" points="1597.338,1248.945 1593.626,1248.936 1593.55,1290.409 1594.237,1290.411 
				1594.162,1331.588 1597.874,1331.597 1597.949,1290.123 1597.263,1290.122 			"/>
			<polygon style="fill:#FFA412;" points="1559.896,1248.855 1556.183,1248.848 1556.107,1290.32 1556.794,1290.322 
				1556.72,1331.499 1560.432,1331.508 1560.507,1290.034 1559.82,1290.033 			"/>
			<polygon style="fill:#FFA412;" points="1524.838,1248.772 1521.126,1248.764 1521.051,1290.237 1521.737,1290.238 
				1521.662,1331.416 1525.375,1331.425 1525.45,1289.951 1524.763,1289.949 			"/>
			<polygon style="fill:#FFA412;" points="1493.534,1248.698 1489.822,1248.689 1489.746,1290.163 1490.434,1290.164 
				1490.358,1331.342 1494.07,1331.35 1494.146,1289.878 1493.459,1289.876 			"/>
			<polygon style="fill:#FFA412;" points="1684.451,1249.151 1680.739,1249.144 1680.664,1290.616 1681.351,1290.617 
				1681.275,1331.729 1680.762,1331.729 1680.686,1373.202 1684.398,1373.211 1684.474,1331.803 1684.988,1331.804 
				1685.063,1290.331 1684.376,1290.329 			"/>
			<polygon style="fill:#FFA412;" points="1692.353,1249.171 1689.366,1249.163 1689.439,1208.713 1685.728,1208.704 
				1685.652,1250.178 1688.64,1250.185 1688.565,1290.635 1689.252,1290.637 1689.178,1331.813 1692.889,1331.822 1692.965,1290.35 
				1692.278,1290.348 			"/>
			
				<rect x="1654.244" y="1227.56" transform="matrix(0.0024 -1 1 0.0024 441.5977 2901.4768)" style="fill:#FFA412;" width="41.473" height="3.711"/>
			<polygon style="fill:#FFA412;" points="1658.021,1249.089 1656.213,1249.085 1656.139,1290.559 1656.824,1290.56 
				1656.749,1331.736 1660.462,1331.746 1660.537,1290.272 1659.851,1290.271 1659.924,1250.116 1661.73,1250.12 1661.807,1208.647 
				1658.095,1208.639 			"/>
			
				<rect x="1616.08" y="1227.469" transform="matrix(0.0026 -1 1 0.0026 403.1743 2862.8901)" style="fill:#FFA412;" width="41.473" height="3.712"/>
			
				<rect x="1591.657" y="1227.411" transform="matrix(0.0024 -1 1 0.0024 379.3079 2838.7422)" style="fill:#FFA412;" width="41.473" height="3.713"/>
			
				<rect x="1554.214" y="1227.322" transform="matrix(0.0023 -1 1 0.0023 342.0846 2801.2432)" style="fill:#FFA412;" width="41.473" height="3.712"/>
			
				<rect x="1519.157" y="1227.239" transform="matrix(0.0021 -1 1 0.0021 307.5243 2766.3689)" style="fill:#FFA412;" width="41.473" height="3.712"/>
			
				<rect x="1487.853" y="1227.164" transform="matrix(0.0024 -1 1 0.0024 275.997 2734.6929)" style="fill:#FFA412;" width="41.474" height="3.712"/>
			<polygon style="fill:#FFA412;" points="1697.614,1249.184 1696.271,1249.181 1696.195,1290.652 1696.882,1290.654 
				1696.808,1331.768 1693.327,1331.759 1693.252,1373.231 1696.964,1373.24 1697.039,1331.832 1700.52,1331.841 1700.595,1290.367 
				1699.908,1290.366 1699.98,1250.212 1701.324,1250.215 1701.4,1208.742 1697.688,1208.732 			"/>
			
				<rect x="1694.302" y="1227.655" transform="matrix(0.0024 -1 1 0.0024 481.4653 2941.6296)" style="fill:#FFA412;" width="41.474" height="3.712"/>
			<path style="fill:#FFA412;" d="M1722.598,1250.119l0.076-41.184c-0.455-0.096-0.918-0.147-1.394-0.148l-2.32-0.006l-0.075,41.474
				l2.32,0.006C1721.681,1250.262,1722.144,1250.213,1722.598,1250.119z"/>
			<path style="fill:#FFA412;" d="M1727.76,1246.289l0.061-33.5c-0.896-1.519-2.188-2.714-3.702-3.387l-0.073,40.257
				C1725.563,1248.994,1726.856,1247.805,1727.76,1246.289z"/>
			
				<rect x="1693.576" y="1186.178" transform="matrix(0.0024 -1 1 0.0024 522.2178 2899.5256)" style="fill:#FFA412;" width="41.474" height="3.712"/>
			
				<rect x="1642.847" y="1186.058" transform="matrix(0.0024 -1 1 0.0024 471.7293 2848.6758)" style="fill:#FFA412;" width="41.473" height="3.711"/>
			
				<rect x="1618.423" y="1185.999" transform="matrix(0.0024 -1 1 0.0024 447.4228 2824.1953)" style="fill:#FFA412;" width="41.474" height="3.712"/>
			
				<rect x="1580.981" y="1185.911" transform="matrix(0.0024 -1 1 0.0024 410.1561 2786.6631)" style="fill:#FFA412;" width="41.474" height="3.711"/>
			
				<rect x="1545.924" y="1185.827" transform="matrix(0.0024 -1 1 0.0024 375.266 2751.5239)" style="fill:#FFA412;" width="41.474" height="3.712"/>
			
				<rect x="1514.62" y="1185.753" transform="matrix(0.0021 -1 1 0.0021 344.5236 2720.4666)" style="fill:#FFA412;" width="41.473" height="3.712"/>
			
				<rect x="1705.537" y="1186.206" transform="matrix(0.0024 -1 1 0.0024 534.1231 2911.5156)" style="fill:#FFA412;" width="41.474" height="3.712"/>
			
				<rect x="1713.439" y="1186.226" transform="matrix(0.0024 -1 1 0.0024 541.9863 2919.4353)" style="fill:#FFA412;" width="41.473" height="3.711"/>
			
				<rect x="1721.069" y="1186.243" transform="matrix(0.0023 -1 1 0.0023 549.626 2927.1143)" style="fill:#FFA412;" width="41.473" height="3.711"/>
			<path style="fill:#FFA412;" d="M1745.727,1167.371l-0.074,41.473l2.318,0.006c0.477,0.001,0.94-0.048,1.395-0.142l0.075-41.185
				c-0.454-0.095-0.918-0.146-1.394-0.147L1745.727,1167.371z"/>
			<path style="fill:#FFA412;" d="M1750.885,1167.991l-0.072,40.257c1.516-0.666,2.813-1.855,3.715-3.369l0.061-33.501
				C1753.691,1169.859,1752.399,1168.663,1750.885,1167.991z"/>
			<polygon style="fill:#FFA412;" points="1669.614,1167.256 1673.326,1167.266 1673.401,1125.792 1669.78,1125.783 
				1669.854,1085.331 1673.475,1085.34 1673.551,1043.866 1669.839,1043.858 1669.764,1085.266 1666.143,1085.257 
				1666.067,1126.731 1669.688,1126.739 			"/>
			
				<rect x="1638.206" y="1144.638" transform="matrix(0.0026 -1 1 0.0026 508.0726 2802.4036)" style="fill:#FFA412;" width="41.472" height="3.712"/>
			
				<rect x="1575.618" y="1144.49" transform="matrix(0.0024 -1 1 0.0024 446.2278 2739.9783)" style="fill:#FFA412;" width="41.474" height="3.712"/>
			
				<rect x="1538.176" y="1144.401" transform="matrix(0.0023 -1 1 0.0023 409.0049 2702.4783)" style="fill:#FFA412;" width="41.474" height="3.711"/>
			
				<rect x="1503.119" y="1144.317" transform="matrix(0.0024 -1 1 0.0024 374.0726 2667.3071)" style="fill:#FFA412;" width="41.473" height="3.712"/>
			
				<rect x="1471.815" y="1144.242" transform="matrix(0.0023 -1 1 0.0023 342.9582 2635.9604)" style="fill:#FFA412;" width="41.473" height="3.713"/>
			<polygon style="fill:#FFA412;" points="1681.575,1167.284 1684.861,1167.292 1684.786,1208.701 1688.498,1208.71 
				1688.574,1167.236 1685.287,1167.229 1685.362,1125.82 1684.849,1125.819 1684.922,1085.367 1685.436,1085.368 
				1685.512,1043.896 1681.799,1043.887 1681.724,1085.295 1681.211,1085.293 1681.135,1126.767 1681.648,1126.768 			"/>
			
				<rect x="1670.634" y="1144.715" transform="matrix(0.0018 -1 1 0.0018 541.6978 2835.8347)" style="fill:#FFA412;" width="41.473" height="3.711"/>
			<path style="fill:#FFA412;" d="M1708.719,1126.832l0.654,0.002l0.075-41.474l-3.256-0.008c0.173-0.022,0.347-0.044,0.517-0.079
				l0.075-41.185c-0.454-0.096-0.917-0.147-1.394-0.147l-2.319-0.006l-0.075,41.474l2.318,0.005
				c0.143,0.001,0.282-0.012,0.422-0.021l-0.074,40.495c-0.14-0.009-0.278-0.022-0.42-0.023l-2.32-0.005l-0.075,41.409l-2.028-0.004
				l0.075-41.409l-3.479-0.008l0.073-40.452l3.48,0.009l0.076-41.474l-3.713-0.009l-0.075,41.409l-3.48-0.009l-0.075,41.474
				l3.48,0.008l-0.073,40.517l2.821,0.007l-0.075,41.408l3.713,0.01l0.075-41.41l1.524,0.004c0.477,0.001,0.939-0.048,1.395-0.142
				l0.073-40.371l1.445,0.003l-0.072,39.907c1.517-0.664,2.812-1.854,3.714-3.369l0.063-33.5
				C1711.017,1128.571,1709.953,1127.533,1708.719,1126.832z"/>
			
				<rect x="1562.262" y="1103.941" transform="matrix(0.0021 -1 1 0.0021 473.8766 2686.4673)" style="fill:#FFA412;" width="41.473" height="3.711"/>
			
				<rect x="1527.205" y="1103.858" transform="matrix(0.0024 -1 1 0.0024 438.5609 2651.0295)" style="fill:#FFA412;" width="41.474" height="3.712"/>
			
				<rect x="1495.9" y="1103.783" transform="matrix(0.0024 -1 1 0.0024 407.4061 2619.6521)" style="fill:#FFA412;" width="41.474" height="3.713"/>
			
				<rect x="1694.719" y="1104.256" transform="matrix(0.0023 -1 1 0.0023 605.3273 2818.9705)" style="fill:#FFA412;" width="41.474" height="3.711"/>
			
				<rect x="1702.35" y="1104.274" transform="matrix(0.0024 -1 1 0.0024 612.8746 2826.5886)" style="fill:#FFA412;" width="41.473" height="3.711"/>
			<path style="fill:#FFA412;" d="M1727.008,1085.4l-0.075,41.475l2.32,0.005c0.476,0.001,0.938-0.048,1.394-0.142l0.074-41.184
				c-0.453-0.097-0.917-0.146-1.393-0.148L1727.008,1085.4z"/>
			<path style="fill:#FFA412;" d="M1735.807,1122.908l0.063-33.5c-0.898-1.519-2.189-2.715-3.703-3.387l-0.073,40.257
				C1733.609,1125.612,1734.905,1124.424,1735.807,1122.908z"/>
			
				<rect x="1638.355" y="1062.713" transform="matrix(0.0024 -1 1 0.0024 590.5923 2721.1323)" style="fill:#FFA412;" width="41.473" height="3.712"/>
			<polygon style="fill:#FFA412;" points="1645.918,1043.801 1642.205,1043.793 1642.13,1085.266 1643.045,1085.268 
				1642.973,1125.719 1642.057,1125.718 1641.981,1167.19 1645.692,1167.199 1645.767,1126.683 1646.683,1126.685 
				1646.758,1085.212 1645.842,1085.209 			"/>
			<polygon style="fill:#FFA412;" points="1619.034,1085.146 1618.622,1085.145 1618.547,1126.618 1618.958,1126.619 
				1618.884,1167.136 1622.597,1167.145 1622.672,1125.671 1622.261,1125.67 1622.335,1085.219 1622.746,1085.22 1622.82,1043.746 
				1619.109,1043.737 			"/>
			
				<rect x="1575.767" y="1062.565" transform="matrix(0.0024 -1 1 0.0024 528.3013 2658.3967)" style="fill:#FFA412;" width="41.474" height="3.712"/>
			
				<rect x="1538.325" y="1062.475" transform="matrix(0.0024 -1 1 0.0024 491.0371 2620.8657)" style="fill:#FFA412;" width="41.473" height="3.712"/>
			
				<rect x="1503.267" y="1062.392" transform="matrix(0.0026 -1 1 0.0026 455.7779 2585.4673)" style="fill:#FFA412;" width="41.474" height="3.713"/>
			
				<rect x="1471.964" y="1062.317" transform="matrix(0.0021 -1 1 0.0021 425.3936 2554.6353)" style="fill:#FFA412;" width="41.473" height="3.713"/>
			
				<rect x="1670.783" y="1062.79" transform="matrix(0.0026 -1 1 0.0026 622.4116 2753.3486)" style="fill:#FFA412;" width="41.473" height="3.712"/>
			<path style="fill:#FFA412;" d="M1708.229,1044.557l-0.072,40.256c1.517-0.665,2.813-1.854,3.715-3.369l0.061-33.5
				C1711.035,1046.424,1709.744,1045.229,1708.229,1044.557z"/>
		</g>
	</g>
	<g>
		<path style="fill:#FFB93E;" d="M1817.051,1155.128l23.061,4.095c1.837,0.327,3.455,1.12,4.724,2.215
			c1.336,1.151,2.283,2.633,2.677,4.241c0.125,0.492,0.191,0.997,0.202,1.505c0.014,0.465-0.019,0.929-0.102,1.397l-57.29,321.545
			c-0.738,4.146-5.101,6.894-9.814,6.273c-0.153-0.022-0.307-0.045-0.459-0.072l-23.061-4.096c-0.152-0.026-0.303-0.058-0.455-0.089
			c-4.639-1.042-7.784-5.123-7.046-9.269l57.29-321.545c0.037-0.207,0.083-0.411,0.139-0.609c0.021-0.086,0.047-0.174,0.076-0.258
			c0.027-0.093,0.06-0.189,0.096-0.28c0.022-0.066,0.05-0.133,0.076-0.199c0.186-0.473,0.424-0.924,0.711-1.343
			c0.041-0.063,0.082-0.122,0.129-0.186c0.041-0.06,0.088-0.122,0.134-0.18c0.092-0.117,0.188-0.237,0.286-0.353
			c0.058-0.066,0.119-0.135,0.182-0.199c0.057-0.061,0.107-0.118,0.169-0.174c0.105-0.11,0.216-0.215,0.329-0.319
			c0.134-0.117,0.27-0.231,0.41-0.339c0.107-0.088,0.219-0.17,0.334-0.252c0.006-0.003,0.013-0.011,0.023-0.014
			c0.075-0.053,0.156-0.109,0.236-0.161c0.242-0.161,0.502-0.312,0.764-0.446c0.079-0.043,0.156-0.083,0.234-0.118
			c0.078-0.039,0.16-0.073,0.242-0.112c0.165-0.072,0.335-0.145,0.503-0.208C1813.421,1154.988,1815.213,1154.801,1817.051,1155.128
			z"/>
		<path style="fill:#FFA412;" d="M1820.866,1318.696l-30.692,172.264c-0.66,3.703-4.955,6.081-9.666,5.439
			c-0.153-0.022-0.307-0.045-0.459-0.072l-23.061-4.096c-0.152-0.026-0.303-0.058-0.455-0.089c-4.644-1.021-7.854-4.732-7.194-8.436
			l26.922-151.104c0.347-0.01,0.693-0.02,1.045-0.032C1789.684,1332.165,1806.743,1329.353,1820.866,1318.696z"/>
		<g>
			
				<rect x="1819.428" y="1177.392" transform="matrix(0.1757 -0.9844 0.9844 0.1757 321.7543 2780.5322)" style="fill:#FFA412;" width="3.711" height="41.473"/>
			
				<rect x="1817.224" y="1189.764" transform="matrix(0.1752 -0.9845 0.9845 0.1752 308.5548 2789.321)" style="fill:#FFA412;" width="3.712" height="41.473"/>
			
				<rect x="1814.581" y="1204.598" transform="matrix(0.1754 -0.9845 0.9845 0.1754 291.4272 2798.6213)" style="fill:#FFA412;" width="3.712" height="41.473"/>
			
				<rect x="1810.53" y="1227.335" transform="matrix(0.1754 -0.9845 0.9845 0.1754 265.7011 2813.3818)" style="fill:#FFA412;" width="3.712" height="41.474"/>
			
				<rect x="1806.246" y="1251.381" transform="matrix(0.1752 -0.9845 0.9845 0.1752 238.8362 2829.3325)" style="fill:#FFA412;" width="3.712" height="41.473"/>
			
				<rect x="1799.678" y="1288.242" transform="matrix(0.1755 -0.9845 0.9845 0.1755 196.7588 2852.8865)" style="fill:#FFA412;" width="3.712" height="41.474"/>
			
				<rect x="1793.529" y="1322.756" transform="matrix(0.1752 -0.9845 0.9845 0.1752 158.0759 2875.6812)" style="fill:#FFA412;" width="3.712" height="41.473"/>
			
				<rect x="1788.037" y="1353.575" transform="matrix(0.1757 -0.9844 0.9844 0.1757 122.5034 2894.9241)" style="fill:#FFA412;" width="3.712" height="41.473"/>
			
				<rect x="1821.526" y="1165.617" transform="matrix(0.1754 -0.9845 0.9845 0.1754 335.5298 2773.3174)" style="fill:#FFA412;" width="3.712" height="41.473"/>
			
				<rect x="1822.912" y="1157.839" transform="matrix(0.1755 -0.9845 0.9845 0.1755 344.2977 2768.2368)" style="fill:#FFA412;" width="3.712" height="41.473"/>
			
				<rect x="1824.251" y="1150.326" transform="matrix(0.1754 -0.9845 0.9845 0.1754 352.8298 2763.3914)" style="fill:#FFA412;" width="3.712" height="41.473"/>
			<path style="fill:#FFA412;" d="M1806.369,1163.613l40.834,7.252l0.407-2.283c0.084-0.47,0.116-0.934,0.103-1.397l-40.55-7.202
				c-0.173,0.432-0.304,0.878-0.387,1.347L1806.369,1163.613z"/>
			<path style="fill:#FFA412;" d="M1807.873,1158.641l39.637,7.039c-0.393-1.609-1.34-3.091-2.676-4.242l-32.984-5.857
				C1810.199,1156.201,1808.799,1157.265,1807.873,1158.641z"/>
		</g>
	</g>
	<path style="fill:#82B378;" d="M2595.465,1496.355h-140.353c-7.521-6.379,5.205-20.868,18.501-21.842
		c5.775-0.437,13.078,0.771,21.422,2.535c1.932-25.652,12.961-140.975,54.529-136.34c46.74,5.188,0,50.785-13.213,77.781
		c-9.787,19.995-20.111,48.67-24.829,62.201c3.794,0.822,7.723,1.629,11.734,2.367c6.196-19.021,29.246-83.002,58.559-79.275
		c34.417,4.365,20.583,30.018-3.811,45.246c-17.896,11.197-39.872,27.113-50.315,34.803c8.848,1.443,18.081,2.417,27.449,2.198
		C2579.18,1485.46,2590.915,1492.545,2595.465,1496.355z"/>
	<path style="fill:#82B378;" d="M765.43,1491.696c-5.574-8.757-22.352-31.483-44.694-28.476
		c-24.346,3.277,26.887,19.328,42.572,28.542c-3.483,0.048-6.479-0.23-8.678-1.015c-10.486-3.737-28.444,3.431-34.186,5.945h99.829
		c-0.691-2.389-2.489-6.288-7.139-9.129c-1.639-1.002-4.935-1.143-9.186-0.818c5.935-6.997,10.057-29.351-6.467-23.599
		c-12.072,4.202-12.039,17.86-10.854,25.94c-2.569,0.403-5.174,0.81-7.746,1.18c-4.971-25.331-22.549-99.569-58.181-101.549
		c-36.122-2.007,30.631,76.992,52.856,102.258C770.709,1491.319,767.967,1491.577,765.43,1491.696z"/>
	<g>
		
			<ellipse transform="matrix(0.7071 -0.7071 0.7071 0.7071 -52.7071 1391.7714)" style="fill:#E2810E;" cx="1653.663" cy="759.509" rx="143.76" ry="143.76"/>
		
			<ellipse transform="matrix(0.254 -0.9672 0.9672 0.254 484.9491 2159.8892)" style="fill:#FFB93E;" cx="1642.68" cy="765.563" rx="143.76" ry="143.76"/>
		<g>
			<path style="fill:#FFA412;" d="M1643.721,898.011c-46.218,0.002-91.083-24.472-114.929-67.727
				c-16.889-30.639-20.836-66.023-11.114-99.631c9.723-33.607,31.951-61.419,62.59-78.308c30.64-16.891,66.023-20.836,99.631-11.115
				c33.608,9.723,61.419,31.951,78.309,62.59c34.866,63.25,11.775,143.073-51.475,177.94
				C1686.739,892.779,1665.083,898.01,1643.721,898.011z M1643.324,643.826c-20.52,0-40.816,5.18-59.284,15.361
				c-28.812,15.883-49.714,42.033-58.856,73.637c-9.142,31.603-5.431,64.876,10.452,93.686
				c22.42,40.672,64.616,63.686,108.072,63.688c20.091,0.001,40.448-4.917,59.253-15.283
				c59.476-32.786,81.189-107.849,48.402-167.324c-15.881-28.812-42.033-49.714-73.636-58.855
				C1666.381,645.453,1654.816,643.826,1643.324,643.826z"/>
		</g>
		<g>
			<path style="fill:#FFA412;" d="M1677.643,791.638c-1.069-2.636-2.384-4.805-3.941-6.512c-1.56-1.706-3.515-3.032-5.864-3.978
				c-2.353-0.944-5.143-1.566-8.372-1.864c-3.229-0.296-7.034-0.322-11.42-0.076c-7.564,0.366-14.564,0.374-20.999,0.028
				c-6.438-0.348-12.255-1.402-17.456-3.165s-9.77-4.439-13.707-8.029c-3.937-3.592-7.154-8.463-9.651-14.613
				c-2.165-5.332-3.195-10.58-3.087-15.741c0.108-5.159,1.257-10.084,3.444-14.774c2.187-4.689,5.315-9.048,9.386-13.077
				c4.069-4.026,9.029-7.56,14.88-10.592l-8.178-20.144l16.212-6.583l8.294,20.425c6.114-1.604,12.008-2.205,17.68-1.806
				c5.671,0.403,10.913,1.782,15.728,4.14c4.813,2.362,9.141,5.701,12.982,10.025c3.84,4.326,7.036,9.626,9.583,15.9l-29.284,11.89
				c-3.057-7.529-7.016-12.482-11.876-14.859c-4.859-2.374-10.095-2.426-15.7-0.149c-3.04,1.234-5.486,2.722-7.337,4.461
				c-1.853,1.737-3.188,3.634-4.008,5.683c-0.818,2.052-1.16,4.219-1.02,6.501c0.14,2.282,0.682,4.584,1.624,6.906
				c0.943,2.322,2.134,4.287,3.573,5.894c1.439,1.609,3.312,2.877,5.618,3.806c2.304,0.929,5.111,1.543,8.42,1.843
				c3.31,0.303,7.297,0.383,11.962,0.242c7.544-0.212,14.527-0.124,20.942,0.268c6.414,0.394,12.229,1.485,17.442,3.278
				c5.213,1.795,9.79,4.487,13.727,8.078c3.937,3.593,7.142,8.432,9.612,14.518c2.242,5.521,3.294,10.871,3.15,16.043
				c-0.141,5.176-1.32,10.077-3.533,14.702c-2.213,4.627-5.406,8.923-9.582,12.883c-4.175,3.961-9.188,7.458-15.039,10.492
				l7.606,18.73l-16.112,6.541l-7.567-18.637c-5.837,1.713-11.755,2.69-17.753,2.934c-6,0.243-11.746-0.585-17.239-2.484
				c-5.492-1.899-10.55-5.054-15.174-9.465c-4.623-4.408-8.465-10.378-11.521-17.908l29.285-11.89
				c1.809,4.455,3.942,7.921,6.403,10.392c2.459,2.474,5.099,4.181,7.92,5.118c2.819,0.938,5.711,1.228,8.673,0.864
				c2.961-0.361,5.825-1.105,8.597-2.23c3.175-1.289,5.795-2.828,7.862-4.617c2.067-1.789,3.618-3.735,4.653-5.838
				c1.035-2.102,1.557-4.305,1.564-6.611C1679.054,796.273,1678.587,793.962,1677.643,791.638z"/>
		</g>
	</g>
	<g>
		<path style="fill:#FFB27D;" d="M1785.736,682.141c-6.015-4.246-19.652-13.589-20.36-11.508c-0.511,1.497,0.216,4.041,1.854,6.688
			c-8.25-3.081-16.626-5.104-36.435-1.299c-3.967,0.763-7.563,3.016-9.744,6.415c-2.019,3.144-2.774,7.075,2.28,10.219
			c10.107,6.285,7.177,2.519,21.226,11.672c14.048,9.152,31.247,11.488,41.523,5.065l13.79-2.299l1.711-22.683
			C1801.581,684.412,1793.721,683.475,1785.736,682.141z"/>
		<path style="fill:#FFB27D;" d="M2147.112,491.887c0,0-32.512,38.57-73.913,22.436c0,0-8.908-21.541-9.033-37.42
			c-0.015-1.955-0.039-3.849-0.069-5.649c-0.222-17.882-0.823-27.915-0.823-27.915s0.011-0.005,0.041-0.009
			c1.884-0.785,63.291-25.997,63.239-23.902C2125.501,467.788,2147.112,491.887,2147.112,491.887z"/>
		<path style="fill:#ED975D;" d="M2120.389,430.958c-5.922,10.977-26.24,32.45-56.292,40.295
			c-0.222-17.882-0.823-27.915-0.823-27.915s0.011-0.005,0.041-0.009C2065.015,442.873,2122.15,427.723,2120.389,430.958z"/>
		<path style="fill:#FFB27D;" d="M2050.412,441.479c0,0,69.059,16.235,78.508-26.927c9.447-43.161,24.725-70.134-18.968-82.324
			c-43.692-12.191-55.894,2.397-62.552,16.036C2040.743,361.904,2032.691,436.144,2050.412,441.479z"/>
		<path style="fill:#A9453D;" d="M2126.557,426.314c0.943,0.603,15.803,5.168,43.943-50.892c4.417-8.8,7.428-27.838-2.87-44.659
			c-10.297-16.821-46.81-30.047-77.146-35.803c-30.335-5.755-37.619,11.314-44.762,28.47c-7.5,18.009-29.158,32.835-29.158,32.835
			c26.16,14.613,57.667-6.288,68.582-2.85c10.916,3.436,14.771,20.64,15.59,26.154c0.819,5.515,2.078,10.097,15.805,5.172
			c13.726-4.925,6.206,19.451,4.008,24.112C2120.549,408.853,2118.684,421.269,2126.557,426.314z"/>
		<g>
			<path style="fill:#2C3A64;" d="M2304.455,1502.675h41.815c8.766,0,18.506-8.777,20.944-24.846
				c2.438-16.081,20.458-24.846,24.358-38c3.901-13.155-16.079-31.674-16.079-31.674l-3.342-4.291l-3.475-4.475l-33.123,7.79
				c0,0-0.816,7.888-1.328,17.934c-0.354,7.255-0.55,15.642-0.135,22.993c0.975,17.544-4.914,36.429-20.494,39.841
				C2298.005,1491.361,2304.455,1502.675,2304.455,1502.675z"/>
			<path style="fill:#2C3A64;" d="M2013.35,1502.675h110.844c1.061-0.207,1.865-0.438,2.354-0.683
				c7.4-3.706,5.083-32.039,4.193-40.792c-0.17-1.621-0.293-2.572-0.293-2.572s-38.976-31.174-44.34-7.304
				c-0.171,0.744-0.365,1.477-0.572,2.195v0.012c-6.767,22.335-37.014,32.479-54.483,35.307
				C2017.702,1491.008,2014.239,1498.786,2013.35,1502.675z"/>
			<path style="fill:#2B478B;" d="M2035.691,863.477c0,0,5.919,73.853,12.876,162.628c9.456,120.594,20.827,268.725,21.952,296.787
				c1.945,48.729,9.749,126.674,9.749,126.674s18.504,18.518,55.54,10.713c0,0,33.002-111.269,42.43-228.998
				c0.146-1.93,0.292-3.873,0.438-5.817c8.77-119.849,22.406-372.217,22.406-372.217L2035.691,863.477z"/>
			<path style="fill:#233862;" d="M2035.691,863.477c0,0,5.919,73.853,12.876,162.628l129.671,205.176
				c0.146-1.93,0.292-3.873,0.438-5.817c8.77-119.849,22.406-372.217,22.406-372.217L2035.691,863.477z"/>
			<path style="fill:#2B478B;" d="M2062.723,872.248c0,0,106.694,267.467,176.85,393.162
				c70.155,125.694,92.078,160.771,92.078,160.771s40.194-16.077,43.848-27.039c0,0-26.827-242.66-73.81-301.813
				c-26.546-33.426-57.731-133.733-59.192-168.812c-1.462-35.077-9.501-104.502-9.501-104.502L2062.723,872.248z"/>
		</g>
		<g>
			<path style="fill:#FFB27D;" d="M2306.043,823.651l1.127,17.202c0,0-11.344,30.559,20.442,46.234c0,0,13.606,5.488,14.158-5.104
				c0.552-10.592-1.189-6.607-0.083-21.524c1.105-14.916-4.759-29.013-14.625-33.761l-8.096-9.341L2306.043,823.651z"/>
			<path style="fill:#1E3D70;" d="M2318.458,836.176c-11.81,3.792-13.701,2.935-13.701,2.935s-57.48-104.648-63.302-114.229
				c-5.822-9.579-122.04-117.35-122.04-117.35l29.866-111.371c0,0,132.184,171.17,146.458,195.731
				c23.587,40.588,37.409,134.852,37.409,134.852S2327.733,833.197,2318.458,836.176z"/>
		</g>
		<path style="fill:#2A4E96;" d="M2013.167,651.257c0.414,22.871,1.743,48.583,3.535,74.696c0.11,1.549,0.22,3.098,0.329,4.645
			c1.146,16.178,2.391,32.393,3.816,48.204c0.573,6.339,1.183,12.607,1.816,18.763l0.098,0.829c0.049,2.304,0.329,4.804,0.585,7.082
			c5.827,59.227,11.935,106.017,13.069,106.736c1.353,0.902,2.877,1.353,4.547,1.158c15.532-1.951,61.871,1.572,99.811-6.681
			c32.015-6.755,59.579-19.556,88.79-36.818c3.876-2.292,12.716-8.363,11.996-12.898c-0.708-4.986-2.013-12.191-3.67-21.249
			c-5.755-31.503-15.69-85.693-19.079-149.112c-0.658-11.813-1.622-23.481-2.865-34.952c-3.256-29.882-8.474-58.263-15.471-83.475
			c-13.009-46.839-32.124-82.706-56.104-96.738c-3.133-1.756-19.993,8.973-35.477,18.908c-14.301,9.169-29.357,11.704-43.999,10.424
			l-12.887,14.252c-15.604,18.141-32.221,42.292-36.756,76.623c-0.342,2.535-0.635,5.229-0.878,8.094
			C2013.118,613.732,2012.813,631.434,2013.167,651.257z"/>
		<path style="fill:#1E3D70;" d="M2013.167,651.257c0.414,22.871,1.743,48.583,3.535,74.696c0.11,1.549,0.22,3.098,0.329,4.645
			c88.717-55.532,102.384-157.146,102.384-157.146c-43.646,1.914-78.318,11.948-105.041,26.296
			C2013.118,613.732,2012.813,631.434,2013.167,651.257z"/>
		<path style="fill:#2A4E96;" d="M1789.011,695c-0.914-13.159,5.899-15.348,5.899-15.348s133.762-24.241,145.133-27.818
			c11.371-3.577,108.603-104.725,108.603-104.725s37.27-42.031,67.786-32.749c26.519,8.065,36.885,28.75,40.413,48.456
			c4.205,23.483-6.619,47.111-26.955,59.585c-45.647,27.998-137.035,83.164-158.557,89.474
			c-47.903,14.045-176.606,1.126-176.606,1.126S1789.729,705.334,1789.011,695z"/>
	</g>
	<path style="opacity:0.2;fill:#ED9F4A;" d="M1946.401,951.918v497.201c0,29.001-23.728,52.736-52.728,52.736h-511.077
		c-4.435,0-8.752-0.546-12.885-1.571c-8.852-2.191-16.864-6.584-23.406-12.563c-4.679-4.268-8.601-9.348-11.549-15.001
		c-0.159-0.303-0.311-0.604-0.462-0.915c-3.064-6.148-4.98-12.96-5.467-20.141c-0.094-1.226-0.135-2.461-0.135-3.712V955.108
		c0-27.892,14.412-53.676,37.92-68.693c0,0,0.018-0.009,0.06-0.033c19.577-12.532,32.562-34.485,32.562-59.464
		c0-7.408-1.143-14.538-3.258-21.25h483.142c-2.116,6.712-3.259,13.842-3.259,21.25c0,23.945,11.926,45.109,30.169,57.859
		c0.008,0,0.008,0.008,0.017,0.008c1.219,0.849,2.461,1.664,3.729,2.428c0.008,0.008,0.008,0.008,0.008,0.008
		C1932.417,901.004,1946.401,925.419,1946.401,951.918z"/>
	<path style="opacity:0.2;fill:#ED9F4A;" d="M1946.401,951.918v497.201c0,27.75-21.728,50.679-49.007,52.602
		c-1.227,0.093-2.47,0.135-3.721,0.135h-225.039c-29.646,0-53.902-24.256-53.902-53.903V955.108
		c0-27.892,14.412-53.676,37.92-68.693c19.62-12.522,32.629-34.494,32.629-59.497c0-7.408-1.142-14.538-3.258-21.25h197.095
		c-2.116,6.712-3.259,13.842-3.259,21.25c0,19.628,8.013,37.383,20.947,50.158c3.905,3.871,8.256,7.281,12.976,10.145
		C1932.417,901.004,1946.401,925.419,1946.401,951.918z"/>
	<path style="opacity:0.6;fill:#ED9F4A;" d="M1906.028,884.777c-15.782-9.449-84.147-42.943-258.004-41.524
		c-199.136,1.63-278.908,41.877-281.352,43.129c19.577-12.532,32.562-34.485,32.562-59.464c0-7.408-1.143-14.538-3.258-21.25
		h483.142c-2.116,6.712-3.259,13.842-3.259,21.25C1875.859,850.863,1887.785,872.027,1906.028,884.777z"/>
	<path style="fill:#2B478B;" d="M1890.062,802.191v22.551c0,2.226-1.813,4.04-4.031,4.04h-496.958c-2.226,0-4.04-1.814-4.04-4.04
		v-22.551c0-2.218,1.814-4.04,4.04-4.04h496.958C1888.248,798.151,1890.062,799.974,1890.062,802.191z"/>
	<path style="fill:#233862;" d="M1890.062,802.191v22.551c0,2.226-1.813,4.04-4.031,4.04h-188.108c-2.217,0-4.04-1.814-4.04-4.04
		v-22.551c0-2.218,1.823-4.04,4.04-4.04h188.108C1888.248,798.151,1890.062,799.974,1890.062,802.191z"/>
	<g>
		<path style="fill:#F9DDBF;" d="M1558.5,913.851c0,0-12.81,18.033-24.553,18.284c-11.742,0.25-29.607-8.359-29.607-8.359
			s-10.783-24.029-3.469-33.432c0,0,7.333-3.219,15.002,2.466c1.316,0.981,2.654,2.215,3.97,3.803
			c1.86,2.235,3.949,3.51,6.164,4.179c8.38,2.55,18.325-3.447,22.045,2.341c2.173,3.364,4.534,5.892,6.478,7.668
			C1556.828,912.848,1558.5,913.851,1558.5,913.851z"/>
		<path style="fill:#F9DDBF;" d="M1391.512,1043.923c0,0,45.273-109.699,126.765-111.788c0,0,75.223,8.357,79.401,111.788H1391.512z
			"/>
		<path style="fill:#F1A34F;" d="M1495.951,935.484c0,0,32.664,7.264,42.742,2.994c0,0,1.522-13.658-12.232-11.742
			c-9.415,1.311-15.549-3.215-19.155-5.05C1502.201,919.089,1494.595,929.771,1495.951,935.484z"/>
		<path style="fill:#E5C1A1;" d="M1524.378,914.896c-2.09,1.567-8.505-22.086-8.505-22.086c1.316,0.981,2.654,2.215,3.97,3.803
			c1.86,2.235,3.949,3.51,6.164,4.179C1526.028,901.481,1526.404,913.37,1524.378,914.896z"/>
		<path style="fill:#E5C1A1;" d="M1554.529,910.8c-0.46,0.271-15.567,9.319-17.614,9.319c-2.09,0,11.137-16.987,11.137-16.987
			C1550.225,906.496,1552.586,909.023,1554.529,910.8z"/>
		<path style="fill:#E5C1A1;" d="M1435.74,1013.276c-0.837-0.715,32.039-48.407,41.094-48.755
			c9.055-0.348,29.398,10.447,44.127,11.841c14.728,1.394,29.007-2.786,31.792,5.92c2.786,8.706,10.448,39.573,5.747,44.513
			C1553.798,1031.734,1453.818,1028.721,1435.74,1013.276z"/>
	</g>
	<g>
		<path style="opacity:0.5;fill:#E2810E;" d="M1399.134,1464.288c-2.62,1.377-5.257,2.679-7.912,3.938
			c-2.527,1.462-5.098,2.897-7.719,4.267c-12.077,6.35-24.532,11.405-37.197,15.228c-4.679-4.268-8.601-9.348-11.549-15.001
			c-2.016,1.075-4.031,2.108-6.063,3.116v-375.133c9.314,1.242,18.527,3.099,27.557,5.543
			c50.678,13.697,95.813,45.941,123.261,93.369C1534.036,1293.842,1498.047,1412.341,1399.134,1464.288z"/>
		<g>
			<path style="fill:#E2810E;" d="M1433.403,1184.838c-54.528-98.918-178.922-134.902-277.839-80.374
				c-98.918,54.528-134.903,178.922-80.375,277.839c54.528,98.918,178.921,134.903,277.84,80.375
				C1451.946,1408.149,1487.932,1283.757,1433.403,1184.838z"/>
			<path style="fill:#FFB93E;" d="M1345.088,1466.833c-2.521,1.536-5.081,3.022-7.686,4.459c-0.882,0.487-1.764,0.966-2.646,1.428
				c-2.016,1.075-4.031,2.108-6.063,3.116c-97.393,47.831-216.186,11.12-269.133-84.921
				c-50.502-91.605-23.356-205.073,59.507-264.654c6.609-4.755,13.563-9.164,20.87-13.187c2.62-1.445,5.266-2.831,7.92-4.141
				c2.578-1.285,5.183-2.512,7.795-3.671c8.004-3.569,16.143-6.575,24.356-9.036c12.212-3.679,24.608-6.156,37.03-7.468
				c38.525-4.081,77.286,2.957,111.654,19.771c36.467,17.831,67.996,46.672,89.086,84.921
				C1470.868,1289.769,1438.155,1410.224,1345.088,1466.833z"/>
			<g>
				<path style="fill:#FFA412;" d="M1240.104,1480.724c-17.39,0-34.88-2.458-52.048-7.425
					c-47.812-13.832-87.377-45.454-111.404-89.042c-24.028-43.589-29.644-93.926-15.813-141.737
					c13.831-47.813,45.454-87.377,89.042-111.404c43.588-24.028,93.925-29.645,141.736-15.813
					c47.813,13.831,87.377,45.453,111.405,89.042s29.644,93.925,15.813,141.737c-13.831,47.812-45.453,87.376-89.042,111.404
					C1301.857,1472.887,1271.145,1480.724,1240.104,1480.724z M1086.388,1378.89c22.595,40.988,59.799,70.725,104.759,83.73
					c44.959,13.007,92.293,7.726,133.281-14.869c40.987-22.595,70.724-59.799,83.73-104.759
					c13.006-44.959,7.726-92.293-14.869-133.281s-59.799-70.725-104.759-83.73c-44.96-13.005-92.294-7.726-133.281,14.87
					c-40.989,22.594-70.725,59.798-83.73,104.758S1063.793,1337.902,1086.388,1378.89z"/>
			</g>
			<g>
				<path style="fill:#FFA412;" d="M1329.962,1312.101c-0.404-1.008-0.832-1.981-1.269-2.939c-3.318-7.29-7.45-13.202-12.405-17.722
					c-5.603-5.106-12.111-8.937-19.527-11.489c-7.417-2.554-15.688-4.107-24.811-4.661c-9.13-0.563-19.064-0.688-29.798-0.387
					c-6.636,0.201-12.306,0.084-17.017-0.345c-4.703-0.429-8.701-1.301-11.977-2.62c-3.284-1.318-5.946-3.124-7.996-5.417
					c-2.05-2.284-3.737-5.081-5.081-8.382s-2.108-6.577-2.311-9.827c-0.201-3.241,0.286-6.324,1.454-9.247
					c1.167-2.914,3.065-5.609,5.702-8.079c2.63-2.478,6.106-4.595,10.432-6.35c7.979-3.242,15.429-3.167,22.341,0.21
					c6.912,3.385,12.54,10.432,16.89,21.14l41.667-16.915c-3.629-8.92-8.172-16.462-13.64-22.618
					c-5.459-6.148-11.615-10.901-18.469-14.261c-6.845-3.352-14.304-5.316-22.375-5.889c-8.063-0.57-16.453,0.286-25.146,2.57
					l-11.8-29.06l-23.063,9.364l11.633,28.657c-8.323,4.317-15.379,9.34-21.174,15.067c-5.787,5.736-10.238,11.936-13.346,18.604
					c-3.116,6.678-4.744,13.682-4.904,21.021c-0.151,7.341,1.31,14.808,4.393,22.392c3.553,8.752,8.13,15.681,13.731,20.788
					c5.603,5.106,12.104,8.919,19.503,11.422c7.398,2.512,15.672,4.015,24.826,4.502c9.155,0.495,19.115,0.486,29.875-0.033
					c6.239-0.354,11.658-0.32,16.251,0.108c4.595,0.42,8.559,1.302,11.91,2.646c3.343,1.353,6.123,3.234,8.34,5.661
					c2.218,2.427,4.091,5.519,5.61,9.264c1.344,3.31,2.008,6.593,1.991,9.877c-0.009,3.284-0.748,6.417-2.227,9.407
					c-1.47,2.99-3.679,5.762-6.618,8.306c-2.939,2.545-6.668,4.729-11.188,6.568c-3.938,1.596-8.012,2.654-12.229,3.175
					c-4.215,0.513-8.323,0.101-12.338-1.234c-4.014-1.336-7.769-3.764-11.263-7.282c-3.502-3.511-6.542-8.44-9.113-14.782
					l-41.658,16.916c4.343,10.708,9.811,19.208,16.387,25.474c6.577,6.273,13.774,10.767,21.585,13.463
					c7.82,2.704,15.992,3.889,24.525,3.536c8.532-0.345,16.957-1.73,25.264-4.175l10.758,26.516l22.921-9.306l-10.817-26.642
					c8.323-4.317,15.453-9.297,21.392-14.933c5.502-5.216,9.801-10.827,12.909-16.856c0.251-0.487,0.494-0.975,0.73-1.471
					c3.141-6.576,4.82-13.547,5.022-20.912C1334.647,1327.563,1333.152,1319.953,1329.962,1312.101z"/>
			</g>
		</g>
		<g>
			<path style="fill:#2C3A64;" d="M1086.711,572.173c0.623-2.506-54.475,24.902-57.269,28.001
				c-25.84,28.664-18.472,66.068-3.687,66.428c9.482,0.229,7.646,15.996,7.646,15.996l105.643-44.69
				C1139.044,637.907,1126.324,563.734,1086.711,572.173z"/>
			<path style="fill:#2C3A64;" d="M1099.719,577.959c0,0,3.775-41.153-42.206-41.153c0,0,13.934,3.779,21.142,11.339
				c0,0-29.328-17.219-61.244,9.237c-31.915,26.456-12.084,92.808-21.79,105.405c-9.704,12.599-47.5,15.119-42.881,55.854
				c4.62,40.733,119.95,91.753,112.545,125.455c0,0,45.196-66.439,12.878-96.76c0,0,15.753,14.838,17.357,32.476
				c0,0,4.275-34.436-17.638-45.449c-19.392-9.747-35.275-45.395-33.595-51.765C1045.966,676.227,1099.719,577.959,1099.719,577.959
				z"/>
			<path style="fill:#ED985F;" d="M1057.967,771.573c-7.09-34.144-51.362-44.731-72.309-16.85
				c-3.766,5.015-6.418,10.941-7.281,17.939c-4.782,38.757,57.185,196.618,66.06,210.912
				c16.156,26.023,111.293,115.226,111.293,115.226l17.533-10.626c0,0-67.479-114.24-77.929-124.931
				C1083.253,950.881,1071.429,836.401,1057.967,771.573z"/>
			<path style="fill:#ED985F;" d="M1149.062,1088.222c0,0,25.59-16.801,35.277-15.72c9.687,1.083,37.726,9.15,38.066,13.272
				c0.343,4.122-31.24,6.693-33.36,8.946c-2.121,2.254-23.565,16.57-31.34,12.081
				C1149.931,1102.312,1149.062,1088.222,1149.062,1088.222z"/>
			<path style="fill:#2B478B;" d="M970.563,1467.815l-22.862-3.359c0,0-76.866-61.085-88.313-175.065
				c-1.167-11.6-1.411-23.374-0.546-35.241c0.101-1.37-0.051-2.738-0.798-3.889c0-0.009-0.009-0.017-0.025-0.034
				c-2.461-3.771-8.584-13.22-16.874-26.657c-8.171-13.237-22.155-38.266-37.542-66.352
				c-27.716-50.577-59.984-111.065-71.054-130.333c-35.267-61.403-18.268-102.691-18.268-102.691s98.384-9.727,125.344-33.311
				l9.71,14.967c0,0,21.315,94.369,20.309,94.806c1.049,3.209,2.115,6.476,3.199,9.802c16.823,51.922,36.173,116.819,46.723,169.674
				c5.929,29.739,9.07,55.65,7.383,73.304c-0.58,6.056,0.125,15.361,1.738,26.852
				C938.21,1348.015,970.563,1467.815,970.563,1467.815z"/>
			<path style="fill:#233862;" d="M1018.516,1496.739h-95.377c0,0-2.287-14.536,2.695-25.564
				c4.773-10.582,11.578-10.919,0.869-27.507c6.061,6.24,25.543,8.821,39.332,6.967c1.689,2.739,10.892,21.115,16.535,25.17
				C988.803,1480.283,1016.597,1478.688,1018.516,1496.739z"/>
			<path style="fill:#233862;" d="M872.842,1010.457c-8.332,45.949-28.011,122.421-69.24,146.761
				c-27.716-50.577-59.984-111.065-71.054-130.333c-35.267-61.403-18.268-102.691-18.268-102.691s98.384-9.727,125.344-33.311
				l9.71,14.967c0,0,21.315,94.369,20.309,94.806C870.691,1003.864,871.758,1007.131,872.842,1010.457z"/>
			<path style="fill:#ED7D2B;" d="M1047.764,750.391c0,0,13.485,14.022,19.645,30.821c0,0-21.513,61.775-71.788,69.522
				C995.62,850.734,1035.398,750.365,1047.764,750.391z"/>
			<path style="fill:#2B478B;" d="M805.949,931.289l0.324-17.84c-35.541,4.482-122.547-42.47-122.547-42.47
				s-37.183,24.731-42.272,95.356c-2.484,34.472-18.202,180.257-19.94,223.788c-0.634,15.778-0.845,27.038-0.916,31.537
				c0.007,0.023,0.006,0.034,0.005,0.045c-0.022,1.372-0.666,2.585-1.512,3.671c-7.354,9.347-13.733,19.249-19.258,29.52
				c-54.232,100.903-25.872,238.011-25.872,238.011l12.595-3.201c0,0,45.855-142.134,75.825-203.614
				c5.088-10.427,9.709-18.537,13.574-23.234c11.269-13.687,23.151-36.931,34.864-64.903
				c22.14-52.886,43.634-122.671,58.963-176.705C770.865,1021.445,805.949,931.289,805.949,931.289z"/>
			<path style="fill:#FFB27D;" d="M1013.935,812.232c-58.102-13.335-20.982-94.979-17.615-93.543
				c8.05-1.64,25.731-15.775,41.547-43.381l2.137,1.852l35.685,31.288c0,0-8.249,12.168-15.188,24.086
				c-5.421,9.331-10.031,18.525-9.299,21.681C1054.073,756.476,1029.432,815.794,1013.935,812.232z"/>
			<path style="fill:#ED985F;" d="M1075.688,708.458c0,0-8.253,12.153-15.188,24.086c-22.187-13.677-22.211-41.144-20.501-55.374
				L1075.688,708.458z"/>
			<path style="fill:#FFB27D;" d="M1076.676,724.127c0,0-53.87-29.977-34.687-63.236c19.185-33.261,25.151-59.53,60.357-41.798
				c35.206,17.732,34.51,34.245,30.807,46.904C1129.451,678.655,1091.185,731.067,1076.676,724.127z"/>
			<path style="fill:#2C3A64;" d="M1142.254,646.598c-2.467-14.768-9.969-16.178-15.2-15.191
				c-19.896-32.9-52.397-20.061-52.397-20.061c-17.36,21.785-42.46,25.503-42.46,25.503s6.252,11.632,32.009,18.832
				c7.868,2.199,16.798,0.867,25.409-2.032c-17.869,9.964-36.558,13.781-36.558,13.781c33.943,3.106,66.238-27.925,69.588-31.244
				c1.565,4.809,4.312,14.876,2.668,22.236c-2.234,10.003-11.113,28.12-5.692,30.464
				C1119.62,688.886,1145.954,668.745,1142.254,646.598z"/>
			<path style="fill:#233862;" d="M649.808,1496.739h-95.377c0,0-2.286-14.536,2.695-25.564c4.774-10.582,12.25-15.392,10.46-28.195
				c6.061,6.24,15.938,13.228,29.727,11.373c1.69,2.738,10.906,17.397,16.55,21.452
				C620.095,1480.283,647.888,1478.688,649.808,1496.739z"/>
			<path style="fill:#F99746;" d="M1020.771,876.958c-12.271,4.283-29.497,6.626-47.118,8.541
				c-25.079,2.739-50.973,4.611-64.537,10.02c-4.946,1.974-8.256,4.409-9.289,7.524c-5.879,17.68-31.789,44.959-31.789,44.959
				c-166.078-7.559-184.312-77.025-184.312-77.025c111.737-129.93,300.93-167.539,300.93-167.539s13.514-5.729,47.545,21.315
				c22.711,18.058,19.722,24.987,19.722,24.987S1056.886,864.359,1020.771,876.958z"/>
			<path style="fill:#ED7D2B;" d="M973.652,885.499c-25.079,2.739-50.973,4.611-64.537,10.02
				c-5.543-82.829,33.545-145.132,33.545-145.132S968.16,854.155,973.652,885.499z"/>
			<path style="fill:#FFB27D;" d="M999.465,734.362c0,0-62.855,6.21-67.894,47.052c-5.039,40.841,60.262,207.193,69.613,222.256
				c17.025,27.422,117.278,121.422,117.278,121.422l18.477-11.198c0,0-71.11-120.383-82.12-131.649
				C1037.534,964.558,1020.748,748.51,999.465,734.362z"/>
			<path style="fill:#F99746;" d="M933.385,805.985c0.164,0.929,58.008,18.896,95.233,0c0,0,7.967-85.89-36.476-81.228
				c-44.442,4.661-70.759,18.658-71.879,39.936C919.144,785.97,933.385,805.985,933.385,805.985z"/>
			<path style="fill:#FFB27D;" d="M1112.749,1113.153c0,0,22.548-20.707,32.282-21.2c9.735-0.492,38.707,2.95,39.709,6.964
				c1.001,4.012-29.754,11.64-31.483,14.206c-1.729,2.566-20.587,20.15-28.983,16.973
				C1115.877,1126.919,1112.749,1113.153,1112.749,1113.153z"/>
		</g>
	</g>
	<path style="fill:#2E3552;" d="M2860.129,1503.225H276.723c-1.614,0-2.934-1.321-2.934-2.935v-1.001
		c0-1.613,1.319-2.934,2.934-2.934h2583.406c1.613,0,2.934,1.32,2.934,2.934v1.001
		C2863.063,1501.903,2861.742,1503.225,2860.129,1503.225z"/>
</g>
</svg>
